<mxfile host="app.diagrams.net" agent="Mozilla/5.0 (X11; Linux x86_64; rv:123.0) Gecko/20100101 Firefox/123.0" version="24.7.16">
  <diagram name="PÃ¡gina-1" id="0Pppa9BKXvAuz8G_iARb">
    <mxGraphModel dx="1434" dy="750" grid="1" gridSize="10" guides="1" tooltips="1" connect="1" arrows="1" fold="1" page="1" pageScale="1" pageWidth="827" pageHeight="1169" background="none" math="0" shadow="1">
      <root>
        <mxCell id="0" />
        <mxCell id="1" parent="0" />
        <mxCell id="WUPRvrQrmbS5LBofiHhi-1" value="" style="rounded=0;whiteSpace=wrap;html=1;fillColor=#dae8fc;gradientColor=#7ea6e0;strokeColor=#6c8ebf;" vertex="1" parent="1">
          <mxGeometry x="40" y="40" width="200" height="120" as="geometry" />
        </mxCell>
        <mxCell id="WUPRvrQrmbS5LBofiHhi-3" value="" style="ellipse;whiteSpace=wrap;html=1;fillColor=#ffe6cc;strokeColor=#d79b00;" vertex="1" parent="1">
          <mxGeometry x="170" y="50" width="50" height="50" as="geometry" />
        </mxCell>
        <mxCell id="WUPRvrQrmbS5LBofiHhi-2" value="" style="ellipse;shape=cloud;whiteSpace=wrap;html=1;fillColor=#f5f5f5;gradientColor=#b3b3b3;strokeColor=#666666;" vertex="1" parent="1">
          <mxGeometry x="120" y="70" width="120" height="80" as="geometry" />
        </mxCell>
        <mxCell id="WUPRvrQrmbS5LBofiHhi-6" value="&lt;div&gt;Veterinario&lt;/div&gt;" style="rounded=0;whiteSpace=wrap;html=1;fillColor=#e6d0de;gradientColor=#d5739d;strokeColor=#996185;" vertex="1" parent="1">
          <mxGeometry x="40" y="280" width="110" height="40" as="geometry" />
        </mxCell>
        <mxCell id="WUPRvrQrmbS5LBofiHhi-14" style="edgeStyle=orthogonalEdgeStyle;rounded=0;orthogonalLoop=1;jettySize=auto;html=1;exitX=0.5;exitY=0;exitDx=0;exitDy=0;entryX=0.5;entryY=1;entryDx=0;entryDy=0;endArrow=none;endFill=0;" edge="1" parent="1" source="WUPRvrQrmbS5LBofiHhi-7" target="WUPRvrQrmbS5LBofiHhi-8">
          <mxGeometry relative="1" as="geometry" />
        </mxCell>
        <mxCell id="WUPRvrQrmbS5LBofiHhi-17" style="edgeStyle=orthogonalEdgeStyle;rounded=0;orthogonalLoop=1;jettySize=auto;html=1;exitX=1;exitY=0.5;exitDx=0;exitDy=0;entryX=0;entryY=0.5;entryDx=0;entryDy=0;endArrow=none;endFill=0;" edge="1" parent="1" source="WUPRvrQrmbS5LBofiHhi-7" target="WUPRvrQrmbS5LBofiHhi-16">
          <mxGeometry relative="1" as="geometry" />
        </mxCell>
        <mxCell id="WUPRvrQrmbS5LBofiHhi-7" value="&lt;div&gt;Gerente&lt;/div&gt;" style="rounded=0;whiteSpace=wrap;html=1;fillColor=#e6d0de;gradientColor=#d5739d;strokeColor=#996185;" vertex="1" parent="1">
          <mxGeometry x="40" y="440" width="110" height="40" as="geometry" />
        </mxCell>
        <mxCell id="WUPRvrQrmbS5LBofiHhi-15" style="edgeStyle=orthogonalEdgeStyle;rounded=0;orthogonalLoop=1;jettySize=auto;html=1;exitX=0.5;exitY=0;exitDx=0;exitDy=0;endArrow=none;endFill=0;" edge="1" parent="1" source="WUPRvrQrmbS5LBofiHhi-8" target="WUPRvrQrmbS5LBofiHhi-6">
          <mxGeometry relative="1" as="geometry" />
        </mxCell>
        <mxCell id="WUPRvrQrmbS5LBofiHhi-8" value="&lt;div&gt;Trabaja&lt;/div&gt;" style="rhombus;whiteSpace=wrap;html=1;fillColor=#b0e3e6;strokeColor=#0e8088;" vertex="1" parent="1">
          <mxGeometry x="55" y="360" width="80" height="40" as="geometry" />
        </mxCell>
        <mxCell id="WUPRvrQrmbS5LBofiHhi-54" style="edgeStyle=orthogonalEdgeStyle;rounded=0;orthogonalLoop=1;jettySize=auto;html=1;exitX=1;exitY=0.5;exitDx=0;exitDy=0;entryX=0;entryY=0.5;entryDx=0;entryDy=0;endArrow=none;endFill=0;" edge="1" parent="1" source="WUPRvrQrmbS5LBofiHhi-16" target="WUPRvrQrmbS5LBofiHhi-45">
          <mxGeometry relative="1" as="geometry" />
        </mxCell>
        <mxCell id="WUPRvrQrmbS5LBofiHhi-16" value="&lt;div&gt;Trabaja&lt;/div&gt;" style="rhombus;whiteSpace=wrap;html=1;fillColor=#b0e3e6;strokeColor=#0e8088;" vertex="1" parent="1">
          <mxGeometry x="200" y="280" width="80" height="40" as="geometry" />
        </mxCell>
        <mxCell id="WUPRvrQrmbS5LBofiHhi-19" value="N:M" style="text;html=1;align=center;verticalAlign=middle;whiteSpace=wrap;rounded=0;" vertex="1" parent="1">
          <mxGeometry x="10" y="367" width="60" height="30" as="geometry" />
        </mxCell>
        <mxCell id="WUPRvrQrmbS5LBofiHhi-20" value="&lt;b&gt;Granja&lt;/b&gt;" style="text;html=1;align=center;verticalAlign=middle;whiteSpace=wrap;rounded=0;fillColor=#dae8fc;gradientColor=#7ea6e0;strokeColor=#6c8ebf;" vertex="1" parent="1">
          <mxGeometry x="40" y="200" width="720" height="40" as="geometry" />
        </mxCell>
        <mxCell id="WUPRvrQrmbS5LBofiHhi-21" value="&lt;b&gt;Liga&lt;/b&gt;" style="text;html=1;align=center;verticalAlign=middle;whiteSpace=wrap;rounded=0;fillColor=#dae8fc;gradientColor=#7ea6e0;strokeColor=#6c8ebf;" vertex="1" parent="1">
          <mxGeometry x="40" y="600" width="720" height="40" as="geometry" />
        </mxCell>
        <mxCell id="WUPRvrQrmbS5LBofiHhi-5" value="&lt;div&gt;Pabellon&lt;/div&gt;" style="rounded=0;whiteSpace=wrap;html=1;fillColor=#e6d0de;gradientColor=#d5739d;strokeColor=#996185;" vertex="1" parent="1">
          <mxGeometry x="320" y="440" width="110" height="40" as="geometry" />
        </mxCell>
        <mxCell id="WUPRvrQrmbS5LBofiHhi-28" style="edgeStyle=orthogonalEdgeStyle;rounded=0;orthogonalLoop=1;jettySize=auto;html=1;exitX=1;exitY=0.5;exitDx=0;exitDy=0;entryX=0;entryY=0.5;entryDx=0;entryDy=0;endArrow=none;endFill=0;" edge="1" parent="1" source="WUPRvrQrmbS5LBofiHhi-23" target="WUPRvrQrmbS5LBofiHhi-26">
          <mxGeometry relative="1" as="geometry" />
        </mxCell>
        <mxCell id="WUPRvrQrmbS5LBofiHhi-23" value="Jugadores" style="rounded=0;whiteSpace=wrap;html=1;fillColor=#e6d0de;gradientColor=#d5739d;strokeColor=#996185;" vertex="1" parent="1">
          <mxGeometry x="40" y="920" width="80" height="40" as="geometry" />
        </mxCell>
        <mxCell id="WUPRvrQrmbS5LBofiHhi-31" style="edgeStyle=orthogonalEdgeStyle;rounded=0;orthogonalLoop=1;jettySize=auto;html=1;exitX=1;exitY=0.5;exitDx=0;exitDy=0;entryX=0;entryY=0.5;entryDx=0;entryDy=0;endArrow=none;endFill=0;" edge="1" parent="1" source="WUPRvrQrmbS5LBofiHhi-24" target="WUPRvrQrmbS5LBofiHhi-27">
          <mxGeometry relative="1" as="geometry" />
        </mxCell>
        <mxCell id="WUPRvrQrmbS5LBofiHhi-91" style="edgeStyle=orthogonalEdgeStyle;rounded=0;orthogonalLoop=1;jettySize=auto;html=1;exitX=0.5;exitY=0;exitDx=0;exitDy=0;entryX=0.5;entryY=1;entryDx=0;entryDy=0;endArrow=none;endFill=0;" edge="1" parent="1" source="WUPRvrQrmbS5LBofiHhi-24" target="WUPRvrQrmbS5LBofiHhi-90">
          <mxGeometry relative="1" as="geometry" />
        </mxCell>
        <mxCell id="WUPRvrQrmbS5LBofiHhi-24" value="Equipo" style="rounded=0;whiteSpace=wrap;html=1;fillColor=#e6d0de;gradientColor=#d5739d;strokeColor=#996185;" vertex="1" parent="1">
          <mxGeometry x="360" y="920" width="80" height="40" as="geometry" />
        </mxCell>
        <mxCell id="WUPRvrQrmbS5LBofiHhi-25" value="&lt;div&gt;Partidos&lt;/div&gt;" style="rounded=0;whiteSpace=wrap;html=1;fillColor=#e6d0de;gradientColor=#d5739d;strokeColor=#996185;" vertex="1" parent="1">
          <mxGeometry x="680" y="920" width="80" height="40" as="geometry" />
        </mxCell>
        <mxCell id="WUPRvrQrmbS5LBofiHhi-29" style="edgeStyle=orthogonalEdgeStyle;rounded=0;orthogonalLoop=1;jettySize=auto;html=1;exitX=1;exitY=0.5;exitDx=0;exitDy=0;entryX=0;entryY=0.5;entryDx=0;entryDy=0;endArrow=none;endFill=0;" edge="1" parent="1" source="WUPRvrQrmbS5LBofiHhi-26" target="WUPRvrQrmbS5LBofiHhi-24">
          <mxGeometry relative="1" as="geometry" />
        </mxCell>
        <mxCell id="WUPRvrQrmbS5LBofiHhi-26" value="Pertenecen" style="rhombus;whiteSpace=wrap;html=1;fillColor=#b0e3e6;strokeColor=#0e8088;" vertex="1" parent="1">
          <mxGeometry x="200" y="920" width="80" height="40" as="geometry" />
        </mxCell>
        <mxCell id="WUPRvrQrmbS5LBofiHhi-32" style="edgeStyle=orthogonalEdgeStyle;rounded=0;orthogonalLoop=1;jettySize=auto;html=1;exitX=1;exitY=0.5;exitDx=0;exitDy=0;entryX=0;entryY=0.5;entryDx=0;entryDy=0;endArrow=none;endFill=0;" edge="1" parent="1" source="WUPRvrQrmbS5LBofiHhi-27" target="WUPRvrQrmbS5LBofiHhi-25">
          <mxGeometry relative="1" as="geometry" />
        </mxCell>
        <mxCell id="WUPRvrQrmbS5LBofiHhi-27" value="&lt;div&gt;Juega&lt;/div&gt;" style="rhombus;whiteSpace=wrap;html=1;fillColor=#b0e3e6;strokeColor=#0e8088;" vertex="1" parent="1">
          <mxGeometry x="520" y="920" width="80" height="40" as="geometry" />
        </mxCell>
        <mxCell id="WUPRvrQrmbS5LBofiHhi-35" style="edgeStyle=orthogonalEdgeStyle;rounded=0;orthogonalLoop=1;jettySize=auto;html=1;exitX=0.5;exitY=0;exitDx=0;exitDy=0;entryX=0.5;entryY=1;entryDx=0;entryDy=0;endArrow=none;endFill=0;" edge="1" parent="1" source="WUPRvrQrmbS5LBofiHhi-33" target="WUPRvrQrmbS5LBofiHhi-34">
          <mxGeometry relative="1" as="geometry" />
        </mxCell>
        <mxCell id="WUPRvrQrmbS5LBofiHhi-33" value="Presidente" style="rounded=0;whiteSpace=wrap;html=1;fillColor=#e6d0de;gradientColor=#d5739d;strokeColor=#996185;" vertex="1" parent="1">
          <mxGeometry x="360" y="1160" width="80" height="40" as="geometry" />
        </mxCell>
        <mxCell id="WUPRvrQrmbS5LBofiHhi-36" style="edgeStyle=orthogonalEdgeStyle;rounded=0;orthogonalLoop=1;jettySize=auto;html=1;exitX=0.5;exitY=0;exitDx=0;exitDy=0;entryX=0.5;entryY=1;entryDx=0;entryDy=0;endArrow=none;endFill=0;" edge="1" parent="1" source="WUPRvrQrmbS5LBofiHhi-34" target="WUPRvrQrmbS5LBofiHhi-24">
          <mxGeometry relative="1" as="geometry" />
        </mxCell>
        <mxCell id="WUPRvrQrmbS5LBofiHhi-34" value="&lt;div&gt;Dirige&lt;/div&gt;" style="rhombus;whiteSpace=wrap;html=1;fillColor=#b0e3e6;strokeColor=#0e8088;" vertex="1" parent="1">
          <mxGeometry x="360" y="1040" width="80" height="40" as="geometry" />
        </mxCell>
        <mxCell id="WUPRvrQrmbS5LBofiHhi-41" style="edgeStyle=orthogonalEdgeStyle;rounded=0;orthogonalLoop=1;jettySize=auto;html=1;exitX=0.5;exitY=0;exitDx=0;exitDy=0;entryX=0.5;entryY=1;entryDx=0;entryDy=0;endArrow=none;endFill=0;" edge="1" parent="1" source="WUPRvrQrmbS5LBofiHhi-37" target="WUPRvrQrmbS5LBofiHhi-23">
          <mxGeometry relative="1" as="geometry" />
        </mxCell>
        <mxCell id="WUPRvrQrmbS5LBofiHhi-37" value="&lt;u&gt;ID&lt;/u&gt;" style="ellipse;whiteSpace=wrap;html=1;fillColor=#d5e8d4;strokeColor=#82b366;gradientColor=#97d077;" vertex="1" parent="1">
          <mxGeometry x="55" y="1000" width="50" height="30" as="geometry" />
        </mxCell>
        <mxCell id="WUPRvrQrmbS5LBofiHhi-40" style="edgeStyle=orthogonalEdgeStyle;rounded=0;orthogonalLoop=1;jettySize=auto;html=1;entryX=0.5;entryY=1;entryDx=0;entryDy=0;endArrow=none;endFill=0;" edge="1" parent="1" source="WUPRvrQrmbS5LBofiHhi-38" target="WUPRvrQrmbS5LBofiHhi-33">
          <mxGeometry relative="1" as="geometry" />
        </mxCell>
        <mxCell id="WUPRvrQrmbS5LBofiHhi-38" value="&lt;u&gt;ID&lt;/u&gt;" style="ellipse;whiteSpace=wrap;html=1;fillColor=#d5e8d4;strokeColor=#82b366;gradientColor=#97d077;" vertex="1" parent="1">
          <mxGeometry x="375" y="1240" width="50" height="30" as="geometry" />
        </mxCell>
        <mxCell id="WUPRvrQrmbS5LBofiHhi-42" style="edgeStyle=orthogonalEdgeStyle;rounded=0;orthogonalLoop=1;jettySize=auto;html=1;exitX=0.5;exitY=0;exitDx=0;exitDy=0;entryX=0.5;entryY=1;entryDx=0;entryDy=0;strokeColor=default;endArrow=none;endFill=0;" edge="1" parent="1" source="WUPRvrQrmbS5LBofiHhi-39" target="WUPRvrQrmbS5LBofiHhi-25">
          <mxGeometry relative="1" as="geometry" />
        </mxCell>
        <mxCell id="WUPRvrQrmbS5LBofiHhi-39" value="&lt;u&gt;ID&lt;/u&gt;" style="ellipse;whiteSpace=wrap;html=1;fillColor=#d5e8d4;strokeColor=#82b366;gradientColor=#97d077;" vertex="1" parent="1">
          <mxGeometry x="695" y="1000" width="50" height="30" as="geometry" />
        </mxCell>
        <mxCell id="WUPRvrQrmbS5LBofiHhi-44" style="edgeStyle=orthogonalEdgeStyle;rounded=0;orthogonalLoop=1;jettySize=auto;html=1;exitX=0.5;exitY=0;exitDx=0;exitDy=0;entryX=0.5;entryY=1;entryDx=0;entryDy=0;endArrow=none;endFill=0;" edge="1" parent="1" source="WUPRvrQrmbS5LBofiHhi-43" target="WUPRvrQrmbS5LBofiHhi-5">
          <mxGeometry relative="1" as="geometry" />
        </mxCell>
        <mxCell id="WUPRvrQrmbS5LBofiHhi-43" value="&lt;u&gt;ID&lt;/u&gt;" style="ellipse;whiteSpace=wrap;html=1;fillColor=#ffcd28;gradientColor=#ffa500;strokeColor=#d79b00;" vertex="1" parent="1">
          <mxGeometry x="355" y="520" width="40" height="40" as="geometry" />
        </mxCell>
        <mxCell id="WUPRvrQrmbS5LBofiHhi-45" value="&lt;div&gt;Granja&lt;/div&gt;" style="rounded=0;whiteSpace=wrap;html=1;fillColor=#e6d0de;gradientColor=#d5739d;strokeColor=#996185;" vertex="1" parent="1">
          <mxGeometry x="320" y="280" width="110" height="40" as="geometry" />
        </mxCell>
        <mxCell id="WUPRvrQrmbS5LBofiHhi-47" style="edgeStyle=orthogonalEdgeStyle;rounded=0;orthogonalLoop=1;jettySize=auto;html=1;exitX=0.5;exitY=0;exitDx=0;exitDy=0;entryX=0.5;entryY=1;entryDx=0;entryDy=0;endArrow=none;endFill=0;" edge="1" parent="1" source="WUPRvrQrmbS5LBofiHhi-46" target="WUPRvrQrmbS5LBofiHhi-45">
          <mxGeometry relative="1" as="geometry" />
        </mxCell>
        <mxCell id="WUPRvrQrmbS5LBofiHhi-48" style="edgeStyle=orthogonalEdgeStyle;rounded=0;orthogonalLoop=1;jettySize=auto;html=1;exitX=0.5;exitY=1;exitDx=0;exitDy=0;entryX=0.5;entryY=0;entryDx=0;entryDy=0;endArrow=none;endFill=0;" edge="1" parent="1" source="WUPRvrQrmbS5LBofiHhi-46" target="WUPRvrQrmbS5LBofiHhi-5">
          <mxGeometry relative="1" as="geometry" />
        </mxCell>
        <mxCell id="WUPRvrQrmbS5LBofiHhi-46" value="Contiene" style="rhombus;whiteSpace=wrap;html=1;fillColor=#b0e3e6;strokeColor=#0e8088;" vertex="1" parent="1">
          <mxGeometry x="335" y="360" width="80" height="40" as="geometry" />
        </mxCell>
        <mxCell id="WUPRvrQrmbS5LBofiHhi-51" style="edgeStyle=orthogonalEdgeStyle;rounded=0;orthogonalLoop=1;jettySize=auto;html=1;exitX=0;exitY=0.5;exitDx=0;exitDy=0;endArrow=none;endFill=0;" edge="1" parent="1" source="WUPRvrQrmbS5LBofiHhi-49" target="WUPRvrQrmbS5LBofiHhi-45">
          <mxGeometry relative="1" as="geometry" />
        </mxCell>
        <mxCell id="WUPRvrQrmbS5LBofiHhi-49" value="&lt;u&gt;ID&lt;/u&gt;" style="ellipse;whiteSpace=wrap;html=1;fillColor=#ffcd28;gradientColor=#ffa500;strokeColor=#d79b00;" vertex="1" parent="1">
          <mxGeometry x="480" y="280" width="40" height="40" as="geometry" />
        </mxCell>
        <mxCell id="WUPRvrQrmbS5LBofiHhi-53" value="1:N" style="text;html=1;align=center;verticalAlign=middle;resizable=0;points=[];autosize=1;strokeColor=none;fillColor=none;" vertex="1" parent="1">
          <mxGeometry x="295" y="365" width="40" height="30" as="geometry" />
        </mxCell>
        <mxCell id="WUPRvrQrmbS5LBofiHhi-55" value="&lt;div align=&quot;left&quot;&gt;&lt;b&gt;Antonio Navarro HernÃ¡ndez&lt;/b&gt;&lt;/div&gt;&lt;div align=&quot;left&quot;&gt;&lt;b&gt;1ÂºDAW&lt;br&gt;&lt;/b&gt;&lt;/div&gt;" style="text;html=1;align=left;verticalAlign=middle;whiteSpace=wrap;rounded=0;" vertex="1" parent="1">
          <mxGeometry x="280" y="30" width="180" height="80" as="geometry" />
        </mxCell>
        <mxCell id="WUPRvrQrmbS5LBofiHhi-57" style="edgeStyle=orthogonalEdgeStyle;rounded=1;orthogonalLoop=1;jettySize=auto;html=1;exitX=0.5;exitY=0;exitDx=0;exitDy=0;entryX=0.5;entryY=1;entryDx=0;entryDy=0;endArrow=none;endFill=0;curved=0;" edge="1" parent="1">
          <mxGeometry relative="1" as="geometry">
            <mxPoint x="32.5" y="1050" as="sourcePoint" />
            <mxPoint x="80" y="962" as="targetPoint" />
            <Array as="points">
              <mxPoint x="33" y="990" />
              <mxPoint x="80" y="990" />
            </Array>
          </mxGeometry>
        </mxCell>
        <mxCell id="WUPRvrQrmbS5LBofiHhi-56" value="Nacimiento" style="ellipse;whiteSpace=wrap;html=1;fillColor=#ffcd28;strokeColor=#d79b00;gradientColor=#ffa500;" vertex="1" parent="1">
          <mxGeometry y="1050" width="65" height="30" as="geometry" />
        </mxCell>
        <mxCell id="WUPRvrQrmbS5LBofiHhi-59" style="edgeStyle=orthogonalEdgeStyle;rounded=1;orthogonalLoop=1;jettySize=auto;html=1;exitX=0.5;exitY=0;exitDx=0;exitDy=0;entryX=0.5;entryY=1;entryDx=0;entryDy=0;endArrow=none;endFill=0;curved=0;" edge="1" parent="1" source="WUPRvrQrmbS5LBofiHhi-58" target="WUPRvrQrmbS5LBofiHhi-23">
          <mxGeometry relative="1" as="geometry">
            <Array as="points">
              <mxPoint x="123" y="990" />
              <mxPoint x="80" y="990" />
            </Array>
          </mxGeometry>
        </mxCell>
        <mxCell id="WUPRvrQrmbS5LBofiHhi-58" value="PosiciÃ³n" style="ellipse;whiteSpace=wrap;html=1;fillColor=#ffcd28;strokeColor=#d79b00;gradientColor=#ffa500;" vertex="1" parent="1">
          <mxGeometry x="90" y="1050" width="65" height="30" as="geometry" />
        </mxCell>
        <mxCell id="WUPRvrQrmbS5LBofiHhi-61" style="edgeStyle=orthogonalEdgeStyle;rounded=1;orthogonalLoop=1;jettySize=auto;html=1;exitX=0.5;exitY=0;exitDx=0;exitDy=0;entryX=0.5;entryY=1;entryDx=0;entryDy=0;endArrow=none;endFill=0;curved=0;" edge="1" parent="1" source="WUPRvrQrmbS5LBofiHhi-60" target="WUPRvrQrmbS5LBofiHhi-23">
          <mxGeometry relative="1" as="geometry">
            <Array as="points">
              <mxPoint x="200" y="1045" />
              <mxPoint x="200" y="990" />
              <mxPoint x="80" y="990" />
            </Array>
          </mxGeometry>
        </mxCell>
        <mxCell id="WUPRvrQrmbS5LBofiHhi-60" value="Nombre" style="ellipse;whiteSpace=wrap;html=1;fillColor=#ffcd28;strokeColor=#d79b00;gradientColor=#ffa500;" vertex="1" parent="1">
          <mxGeometry x="170" y="1050" width="65" height="30" as="geometry" />
        </mxCell>
        <mxCell id="WUPRvrQrmbS5LBofiHhi-93" style="edgeStyle=orthogonalEdgeStyle;rounded=1;orthogonalLoop=1;jettySize=auto;html=1;exitX=0.5;exitY=1;exitDx=0;exitDy=0;curved=0;endArrow=none;endFill=0;" edge="1" parent="1" source="WUPRvrQrmbS5LBofiHhi-62" target="WUPRvrQrmbS5LBofiHhi-24">
          <mxGeometry relative="1" as="geometry" />
        </mxCell>
        <mxCell id="WUPRvrQrmbS5LBofiHhi-62" value="Nombre" style="ellipse;whiteSpace=wrap;html=1;fillColor=#ffcd28;strokeColor=#d79b00;gradientColor=#ffa500;" vertex="1" parent="1">
          <mxGeometry x="440" y="850" width="65" height="30" as="geometry" />
        </mxCell>
        <mxCell id="WUPRvrQrmbS5LBofiHhi-65" value="Estadio" style="rounded=0;whiteSpace=wrap;html=1;fillColor=#e6d0de;gradientColor=#d5739d;strokeColor=#996185;" vertex="1" parent="1">
          <mxGeometry x="360" y="680" width="80" height="40" as="geometry" />
        </mxCell>
        <mxCell id="WUPRvrQrmbS5LBofiHhi-92" style="edgeStyle=orthogonalEdgeStyle;rounded=0;orthogonalLoop=1;jettySize=auto;html=1;exitX=0.5;exitY=0;exitDx=0;exitDy=0;endArrow=none;endFill=0;" edge="1" parent="1" source="WUPRvrQrmbS5LBofiHhi-90" target="WUPRvrQrmbS5LBofiHhi-65">
          <mxGeometry relative="1" as="geometry" />
        </mxCell>
        <mxCell id="WUPRvrQrmbS5LBofiHhi-90" value="Juega" style="rhombus;whiteSpace=wrap;html=1;fillColor=#b0e3e6;strokeColor=#0e8088;" vertex="1" parent="1">
          <mxGeometry x="360" y="800" width="80" height="40" as="geometry" />
        </mxCell>
        <mxCell id="WUPRvrQrmbS5LBofiHhi-96" style="edgeStyle=orthogonalEdgeStyle;rounded=1;orthogonalLoop=1;jettySize=auto;html=1;exitX=0.5;exitY=1;exitDx=0;exitDy=0;endArrow=none;endFill=0;curved=0;" edge="1" parent="1" source="WUPRvrQrmbS5LBofiHhi-95">
          <mxGeometry relative="1" as="geometry">
            <mxPoint x="400" y="920" as="targetPoint" />
            <Array as="points">
              <mxPoint x="401" y="900" />
            </Array>
          </mxGeometry>
        </mxCell>
        <mxCell id="WUPRvrQrmbS5LBofiHhi-95" value="&lt;u&gt;ID&lt;/u&gt;" style="ellipse;whiteSpace=wrap;html=1;fillColor=#d5e8d4;strokeColor=#82b366;gradientColor=#97d077;" vertex="1" parent="1">
          <mxGeometry x="505" y="870" width="50" height="30" as="geometry" />
        </mxCell>
        <mxCell id="WUPRvrQrmbS5LBofiHhi-98" style="edgeStyle=orthogonalEdgeStyle;rounded=0;orthogonalLoop=1;jettySize=auto;html=1;exitX=0;exitY=0.5;exitDx=0;exitDy=0;endArrow=none;endFill=0;" edge="1" parent="1" source="WUPRvrQrmbS5LBofiHhi-97" target="WUPRvrQrmbS5LBofiHhi-65">
          <mxGeometry relative="1" as="geometry" />
        </mxCell>
        <mxCell id="WUPRvrQrmbS5LBofiHhi-97" value="&lt;u&gt;ID&lt;/u&gt;" style="ellipse;whiteSpace=wrap;html=1;fillColor=#d5e8d4;strokeColor=#82b366;gradientColor=#97d077;" vertex="1" parent="1">
          <mxGeometry x="500" y="685" width="50" height="30" as="geometry" />
        </mxCell>
        <mxCell id="WUPRvrQrmbS5LBofiHhi-100" style="edgeStyle=orthogonalEdgeStyle;rounded=1;orthogonalLoop=1;jettySize=auto;html=1;exitX=0.5;exitY=1;exitDx=0;exitDy=0;entryX=0.5;entryY=0;entryDx=0;entryDy=0;endArrow=none;endFill=0;curved=0;" edge="1" parent="1" source="WUPRvrQrmbS5LBofiHhi-99" target="WUPRvrQrmbS5LBofiHhi-24">
          <mxGeometry relative="1" as="geometry" />
        </mxCell>
        <mxCell id="WUPRvrQrmbS5LBofiHhi-99" value="&lt;div&gt;FundaciÃ³n&lt;/div&gt;" style="ellipse;whiteSpace=wrap;html=1;fillColor=#ffcd28;strokeColor=#d79b00;gradientColor=#ffa500;" vertex="1" parent="1">
          <mxGeometry x="300" y="850" width="65" height="30" as="geometry" />
        </mxCell>
      </root>
    </mxGraphModel>
  </diagram>
</mxfile>
